<svg xmlns="http://www.w3.org/2000/svg" viewBox="0 0 800 110" width="800" height="110" role="img" aria-labelledby="titulo desc">
  <title id="titulo">Linguagens</title>
  <desc id="desc">PHP 60.6%; JavaScript 22.4%; CSS 7.4%; Python 4.9%; Outros 4.7% do codigo em 34 repositorios.</desc>
  <style>
    .tit { font: 600 15px 'Segoe UI', -apple-system, BlinkMacSystemFont, Helvetica, Arial, sans-serif; fill: #0f172a; }
    .sub { font: 400 13px 'Segoe UI', -apple-system, BlinkMacSystemFont, Helvetica, Arial, sans-serif; fill: #64748b; }
    .leg { font: 400 14px 'Segoe UI', -apple-system, BlinkMacSystemFont, Helvetica, Arial, sans-serif; fill: #475569; }
    .leg-nome { font-weight: 600; fill: #0f172a; }
  </style>
  <text x="0" y="22" class="tit">Linguagens <tspan class="sub" dx="6">por volume de código em 34 repositórios (pessoais + Rota-7)</tspan></text>
  <rect x="0.0" y="40" width="480.0" height="16" rx="4" fill="#2a78d6"/><rect x="476.0" y="40" width="4" height="16" fill="#2a78d6"/><rect x="482.0" y="40" width="177.4" height="16" fill="#eb6834"/><rect x="661.4" y="40" width="58.6" height="16" fill="#1baf7a"/><rect x="722.0" y="40" width="38.8" height="16" fill="#eda100"/><rect x="762.8" y="40" width="37.2" height="16" rx="4" fill="#c3c2b7"/><rect x="762.8" y="40" width="4" height="16" fill="#c3c2b7"/>
  <rect x="0" y="80" width="12" height="12" rx="3" fill="#2a78d6"/><text x="20" y="91" class="leg"><tspan class="leg-nome">PHP</tspan> 60,6%</text><rect x="112.39999999999999" y="80" width="12" height="12" rx="3" fill="#eb6834"/><text x="132.39999999999998" y="91" class="leg"><tspan class="leg-nome">JavaScript</tspan> 22,4%</text><rect x="278.0" y="80" width="12" height="12" rx="3" fill="#1baf7a"/><text x="298.0" y="91" class="leg"><tspan class="leg-nome">CSS</tspan> 7,4%</text><rect x="382.8" y="80" width="12" height="12" rx="3" fill="#eda100"/><text x="402.8" y="91" class="leg"><tspan class="leg-nome">Python</tspan> 4,9%</text><rect x="510.4" y="80" width="12" height="12" rx="3" fill="#c3c2b7"/><text x="530.4" y="91" class="leg"><tspan class="leg-nome">Outros</tspan> 4,7%</text>
</svg>
